<?xml version="1.0" encoding="iso-8859-1"?>
<!-- Uploaded to: SVG Repo, www.svgrepo.com, Generator: SVG Repo Mixer Tools -->
<svg height="800px" width="800px" version="1.1" id="Layer_1" xmlns="http://www.w3.org/2000/svg" xmlns:xlink="http://www.w3.org/1999/xlink" 
	 viewBox="0 0 512 512" xml:space="preserve">
<path style="fill:#1E0478;" d="M511.676,469.401c1.418,10.729-1.871,21.564-9.024,29.712c-7.168,8.179-17.52,12.872-28.4,12.872
	h-36.79c-18.651,0-34.707-13.973-37.363-32.519c-6.791-47.323-21.277-92.895-43.067-135.449
	c-21.277-41.528-48.998-79.223-82.392-112.044c-66.547-65.385-150.282-106.913-242.151-120.087
	C13.974,109.23,0.016,93.204,0.016,74.583v-36.85c0-10.865,4.693-21.232,12.872-28.4C21.051,2.181,31.901-1.094,42.63,0.324
	c60.421,8.013,118.623,25.955,173.008,53.344c53.027,26.709,101.149,61.734,143.024,104.077
	c41.151,41.619,75.164,89.198,101.089,141.44C486.355,352.769,503.829,410.036,511.676,469.401z M479.957,479.224
	c0.845-0.951,2.173-2.973,1.796-5.87c-7.409-56.06-23.903-110.143-49.028-160.755c-24.506-49.345-56.633-94.313-95.52-133.623
	c-39.581-40.034-85.048-73.127-135.147-98.357C150.705,54.754,95.732,37.808,38.676,30.248c-0.362-0.045-0.694-0.075-1.026-0.075
	c-2.354,0-4.029,1.132-4.874,1.856c-0.966,0.86-2.58,2.716-2.58,5.704v36.85c0,3.757,2.761,6.881,6.579,7.424
	c98.282,14.094,187.857,58.504,259.022,128.432c35.703,35.1,65.34,75.405,88.096,119.815
	c23.314,45.527,38.812,94.298,46.085,144.941c0.543,3.833,3.697,6.609,7.485,6.609h36.79
	C477.24,481.805,479.112,480.19,479.957,479.224z"/>
<path style="fill:#6F7CCD;" d="M481.752,473.354c0.377,2.897-0.951,4.919-1.796,5.87c-0.845,0.966-2.716,2.58-5.704,2.58h-36.79
	c-3.788,0-6.941-2.777-7.485-6.609c-7.273-50.642-22.771-99.414-46.085-144.941c-22.756-44.41-52.393-84.716-88.096-119.816
	C224.632,140.512,135.057,96.101,36.775,82.007c-3.818-0.543-6.579-3.667-6.579-7.424v-36.85c0-2.988,1.615-4.844,2.58-5.704
	c0.845-0.724,2.52-1.856,4.874-1.856c0.332,0,0.664,0.03,1.026,0.075c57.056,7.56,112.029,24.506,163.381,50.371
	c50.099,25.231,95.566,58.323,135.147,98.357c38.887,39.31,71.014,84.278,95.52,133.623
	C457.85,363.211,474.343,417.294,481.752,473.354z"/>
<path style="fill:#1E0478;" d="M345.7,466.88c2.203,11.137-0.664,22.56-7.862,31.327c-7.198,8.767-17.821,13.777-29.154,13.777
	h-37.242c-17.791,0-32.927-12.132-36.82-29.516c-11.167-50.039-36.352-95.777-72.825-132.25s-82.211-61.658-132.265-72.84
	c-17.384-3.878-29.516-19.014-29.516-36.82v-37.242c0-11.333,5.025-21.956,13.777-29.154c8.782-7.198,20.206-10.065,31.342-7.862
	c74.515,14.788,142.405,51.216,196.307,105.344C294.967,325.381,331.017,392.894,345.7,466.88z M314.509,479.058
	c0.86-1.041,2.188-3.244,1.584-6.308c-13.506-68.132-46.719-130.303-96.033-179.814c-49.662-49.858-112.18-83.403-180.795-97.029
	c-0.543-0.106-1.056-0.151-1.539-0.151c-2.279,0-3.923,1.026-4.784,1.735c-1.026,0.845-2.746,2.716-2.746,5.825v37.242
	c0,3.561,2.43,6.579,5.9,7.364c55.667,12.434,106.506,40.426,147.038,80.943c40.532,40.547,68.524,91.386,80.943,147.023
	c0.785,3.486,3.803,5.915,7.364,5.915h37.242C311.792,481.805,313.664,480.084,314.509,479.058z"/>
<path style="fill:#9B8CCC;" d="M316.093,472.751c0.604,3.063-0.724,5.266-1.584,6.308c-0.845,1.026-2.716,2.746-5.825,2.746h-37.242
	c-3.561,0-6.579-2.43-7.364-5.915c-12.419-55.637-40.411-106.476-80.943-147.023c-40.532-40.517-91.371-68.509-147.038-80.943
	c-3.471-0.785-5.9-3.803-5.9-7.364v-37.242c0-3.109,1.72-4.98,2.746-5.825c0.86-0.709,2.505-1.735,4.784-1.735
	c0.483,0,0.996,0.045,1.539,0.151c68.615,13.626,131.133,47.172,180.795,97.029C269.374,342.447,302.587,404.619,316.093,472.751z"
	/>
<path style="fill:#1E0478;" d="M71.935,368.146c39.657,0,71.935,32.263,71.935,71.919c0,39.672-32.278,71.935-71.935,71.935
	S0,479.737,0,440.065C0,400.409,32.278,368.146,71.935,368.146z M113.689,440.065c0-23.012-18.727-41.739-41.754-41.739
	c-23.012,0-41.754,18.727-41.754,41.739c0,23.028,18.742,41.754,41.754,41.754C94.963,481.82,113.689,463.093,113.689,440.065z"/>
<path style="fill:#94E7EF;" d="M71.935,398.326c23.028,0,41.754,18.727,41.754,41.739c0,23.028-18.727,41.754-41.754,41.754
	c-23.012,0-41.754-18.727-41.754-41.754C30.181,417.053,48.923,398.326,71.935,398.326z"/>
</svg>